HIERARCHY
ROOT Hips
{
	OFFSET 0.000000 97.167313 0.000000
	CHANNELS 6 Xposition Yposition Zposition Xrotation Yrotation Zrotation
	JOINT Spine
	{
		OFFSET 0.000000 13.784798 0.064400
		CHANNELS 3 Xrotation Yrotation Zrotation
		JOINT Spine1
		{
			OFFSET 0.000000 12.037903 0.404700
			CHANNELS 3 Xrotation Yrotation Zrotation
			JOINT Spine2
			{
				OFFSET 0.000000 17.795601 0.420200
				CHANNELS 3 Xrotation Yrotation Zrotation
				JOINT Neck
				{
					OFFSET 0.000000 39.131302 11.954600
					CHANNELS 3 Xrotation Yrotation Zrotation
					JOINT Head
					{
						OFFSET 0.000000 14.456192 15.627699
						CHANNELS 3 Xrotation Yrotation Zrotation
						JOINT HeadTop_End
						{
							OFFSET 0.000000 15.703506 7.603401
							CHANNELS 3 Xrotation Yrotation Zrotation
							End Site
							{
								OFFSET 0.000000 17.447403 0.000000
							}
						}
					}
				}
				JOINT LeftShoulder
				{
					OFFSET 17.399500 24.608795 1.168800
					CHANNELS 3 Xrotation Yrotation Zrotation
					JOINT LeftArm
					{
						OFFSET 18.980635 5.765305 1.818600
						CHANNELS 3 Xrotation Yrotation Zrotation
						JOINT LeftForeArm
						{
							OFFSET 49.290169 0.000000 0.000000
							CHANNELS 3 Xrotation Yrotation Zrotation
							JOINT LeftHand
							{
								OFFSET 31.562012 0.000000 0.000000
								CHANNELS 3 Xrotation Yrotation Zrotation
								JOINT LeftHandThumb1
								{
									OFFSET 6.133995 -4.388519 7.076070
									CHANNELS 3 Xrotation Yrotation Zrotation
									JOINT LeftHandThumb2
									{
										OFFSET 6.037666 -3.485840 3.485847
										CHANNELS 3 Xrotation Yrotation Zrotation
										JOINT LeftHandThumb3
										{
											OFFSET 6.496506 -3.750763 3.750761
											CHANNELS 3 Xrotation Yrotation Zrotation
											JOINT LeftHandThumb4
											{
												OFFSET 5.616882 -3.242905 3.242910
												CHANNELS 3 Xrotation Yrotation Zrotation
												End Site
												{
													OFFSET -1.254608 7.132141 0.375429
												}
											}
										}
									}
								}
								JOINT LeftHandPinky1
								{
									OFFSET 18.920792 -0.453171 -11.426712
									CHANNELS 3 Xrotation Yrotation Zrotation
									JOINT LeftHandPinky2
									{
										OFFSET 4.919586 0.000000 0.000000
										CHANNELS 3 Xrotation Yrotation Zrotation
										JOINT LeftHandPinky3
										{
											OFFSET 5.233047 0.000000 0.000000
											CHANNELS 3 Xrotation Yrotation Zrotation
											JOINT LeftHandPinky4
											{
												OFFSET 5.571716 0.000000 0.000000
												CHANNELS 3 Xrotation Yrotation Zrotation
												End Site
												{
													OFFSET -3.459808 4.342407 -0.466164
												}
											}
										}
									}
								}
								JOINT LeftHandRing1
								{
									OFFSET 22.726120 -0.094986 -6.500475
									CHANNELS 3 Xrotation Yrotation Zrotation
									JOINT LeftHandRing2
									{
										OFFSET 6.408615 0.000000 0.000000
										CHANNELS 3 Xrotation Yrotation Zrotation
										JOINT LeftHandRing3
										{
											OFFSET 6.150223 0.000000 0.000000
											CHANNELS 3 Xrotation Yrotation Zrotation
											JOINT LeftHandRing4
											{
												OFFSET 6.145386 0.000000 0.000000
												CHANNELS 3 Xrotation Yrotation Zrotation
												End Site
												{
													OFFSET -3.671402 4.923981 -0.202372
												}
											}
										}
									}
								}
								JOINT LeftHandMiddle1
								{
									OFFSET 23.373947 0.000000 0.000001
									CHANNELS 3 Xrotation Yrotation Zrotation
									JOINT LeftHandMiddle2
									{
										OFFSET 6.996567 0.000000 0.000000
										CHANNELS 3 Xrotation Yrotation Zrotation
										JOINT LeftHandMiddle3
										{
											OFFSET 7.015945 0.000000 0.000000
											CHANNELS 3 Xrotation Yrotation Zrotation
											JOINT LeftHandMiddle4
											{
												OFFSET 7.721573 0.000000 0.000000
												CHANNELS 3 Xrotation Yrotation Zrotation
												End Site
												{
													OFFSET -4.651108 6.158463 0.251582
												}
											}
										}
									}
								}
								JOINT LeftHandIndex1
								{
									OFFSET 21.310577 -0.490082 6.209344
									CHANNELS 3 Xrotation Yrotation Zrotation
									JOINT LeftHandIndex2
									{
										OFFSET 7.536453 0.000000 0.000000
										CHANNELS 3 Xrotation Yrotation Zrotation
										JOINT LeftHandIndex3
										{
											OFFSET 7.512344 0.000000 0.000000
											CHANNELS 3 Xrotation Yrotation Zrotation
											JOINT LeftHandIndex4
											{
												OFFSET 10.212402 0.000000 0.000001
												CHANNELS 3 Xrotation Yrotation Zrotation
												End Site
												{
													OFFSET -5.180801 8.690506 1.388433
												}
											}
										}
									}
								}
							}
						}
					}
				}
				JOINT RightShoulder
				{
					OFFSET -17.399500 24.608795 1.168800
					CHANNELS 3 Xrotation Yrotation Zrotation
					JOINT RightArm
					{
						OFFSET -18.980635 5.765305 1.818600
						CHANNELS 3 Xrotation Yrotation Zrotation
						JOINT RightForeArm
						{
							OFFSET -49.290169 0.000000 0.000000
							CHANNELS 3 Xrotation Yrotation Zrotation
							JOINT RightHand
							{
								OFFSET -31.562012 0.000000 0.000000
								CHANNELS 3 Xrotation Yrotation Zrotation
								JOINT RightHandThumb1
								{
									OFFSET -6.133995 -4.388519 7.076070
									CHANNELS 3 Xrotation Yrotation Zrotation
									JOINT RightHandThumb2
									{
										OFFSET -6.037666 -3.485840 3.485847
										CHANNELS 3 Xrotation Yrotation Zrotation
										JOINT RightHandThumb3
										{
											OFFSET -6.496506 -3.750763 3.750761
											CHANNELS 3 Xrotation Yrotation Zrotation
											JOINT RightHandThumb4
											{
												OFFSET -5.616882 -3.242905 3.242910
												CHANNELS 3 Xrotation Yrotation Zrotation
												End Site
												{
													OFFSET 1.254608 7.132141 0.375429
												}
											}
										}
									}
								}
								JOINT RightHandIndex1
								{
									OFFSET -21.310577 -0.490082 6.209344
									CHANNELS 3 Xrotation Yrotation Zrotation
									JOINT RightHandIndex2
									{
										OFFSET -7.536453 0.000000 0.000000
										CHANNELS 3 Xrotation Yrotation Zrotation
										JOINT RightHandIndex3
										{
											OFFSET -7.512344 0.000000 0.000000
											CHANNELS 3 Xrotation Yrotation Zrotation
											JOINT RightHandIndex4
											{
												OFFSET -10.212402 0.000000 0.000001
												CHANNELS 3 Xrotation Yrotation Zrotation
												End Site
												{
													OFFSET 5.180801 8.690506 1.388433
												}
											}
										}
									}
								}
								JOINT RightHandMiddle1
								{
									OFFSET -23.373947 0.000000 0.000001
									CHANNELS 3 Xrotation Yrotation Zrotation
									JOINT RightHandMiddle2
									{
										OFFSET -6.996567 0.000000 0.000000
										CHANNELS 3 Xrotation Yrotation Zrotation
										JOINT RightHandMiddle3
										{
											OFFSET -7.015945 0.000000 0.000000
											CHANNELS 3 Xrotation Yrotation Zrotation
											JOINT RightHandMiddle4
											{
												OFFSET -7.721573 0.000000 0.000000
												CHANNELS 3 Xrotation Yrotation Zrotation
												End Site
												{
													OFFSET 4.651108 6.158463 0.251582
												}
											}
										}
									}
								}
								JOINT RightHandRing1
								{
									OFFSET -22.726120 -0.094986 -6.500475
									CHANNELS 3 Xrotation Yrotation Zrotation
									JOINT RightHandRing2
									{
										OFFSET -6.408615 0.000000 0.000000
										CHANNELS 3 Xrotation Yrotation Zrotation
										JOINT RightHandRing3
										{
											OFFSET -6.150223 0.000000 0.000000
											CHANNELS 3 Xrotation Yrotation Zrotation
											JOINT RightHandRing4
											{
												OFFSET -6.145386 0.000000 0.000000
												CHANNELS 3 Xrotation Yrotation Zrotation
												End Site
												{
													OFFSET 3.671402 4.923981 -0.202372
												}
											}
										}
									}
								}
								JOINT RightHandPinky1
								{
									OFFSET -18.920792 -0.453171 -11.426712
									CHANNELS 3 Xrotation Yrotation Zrotation
									JOINT RightHandPinky2
									{
										OFFSET -4.919586 0.000000 0.000000
										CHANNELS 3 Xrotation Yrotation Zrotation
										JOINT RightHandPinky3
										{
											OFFSET -5.233047 0.000000 0.000000
											CHANNELS 3 Xrotation Yrotation Zrotation
											JOINT RightHandPinky4
											{
												OFFSET -5.571716 0.000000 0.000000
												CHANNELS 3 Xrotation Yrotation Zrotation
												End Site
												{
													OFFSET 3.459808 4.342407 -0.466164
												}
											}
										}
									}
								}
							}
						}
					}
				}
			}
		}
	}
	JOINT LeftUpLeg
	{
		OFFSET 19.899099 -7.885101 -3.429500
		CHANNELS 3 Xrotation Yrotation Zrotation
		JOINT LeftLeg
		{
			OFFSET 1.745560 -36.997807 10.304700
			CHANNELS 3 Xrotation Yrotation Zrotation
			JOINT LeftFoot
			{
				OFFSET -1.745558 -29.803308 -13.615400
				CHANNELS 3 Xrotation Yrotation Zrotation
				JOINT LeftToeBase
				{
					OFFSET 1.181900 -18.539904 15.226099
					CHANNELS 3 Xrotation Yrotation Zrotation
					JOINT LeftToe_End
					{
						OFFSET -0.863701 1.402801 16.534700
						CHANNELS 3 Xrotation Yrotation Zrotation
						End Site
						{
							OFFSET 0.000000 16.616566 0.000000
						}
					}
				}
			}
		}
	}
	JOINT RightUpLeg
	{
		OFFSET -19.899099 -7.885101 -3.429500
		CHANNELS 3 Xrotation Yrotation Zrotation
		JOINT RightLeg
		{
			OFFSET -1.745560 -36.997807 10.304700
			CHANNELS 3 Xrotation Yrotation Zrotation
			JOINT RightFoot
			{
				OFFSET 1.745558 -29.803308 -13.615400
				CHANNELS 3 Xrotation Yrotation Zrotation
				JOINT RightToeBase
				{
					OFFSET -1.181900 -18.539904 15.226099
					CHANNELS 3 Xrotation Yrotation Zrotation
					JOINT RightToe_End
					{
						OFFSET 0.863701 1.402801 16.534700
						CHANNELS 3 Xrotation Yrotation Zrotation
						End Site
						{
							OFFSET 0.000000 16.616566 0.000000
						}
					}
				}
			}
		}
	}
}
MOTION
Frames: 4
Frame Time: 0.033333
373.021088 87.209526 132.658356 -1.667484 22.836263 2.906301 16.446073 1.929495 1.069506 -4.669872 0.967678 0.485862 -4.670195 1.080291 0.341014 16.068158 17.557592 1.614818 -3.245958 19.828519 -6.570380 0.000000 0.000001 0.000000 2.463053 4.708852 -2.560539 -0.994732 -2.503246 -73.443522 12.688631 -8.351757 -9.643704 0.144114 -5.617849 10.730500 -6.659664 1.380130 2.273344 4.527381 10.316721 1.874250 4.630857 10.924801 2.064998 -0.000000 0.000003 -0.000001 -2.013681 4.606210 -30.934121 -0.041742 0.030385 -23.664568 -0.004341 -0.000265 -23.408551 -0.000000 -0.000001 -0.000002 -0.840486 6.194466 -26.384133 0.049701 0.004399 -19.264000 -0.007272 -0.001712 -19.042296 0.000001 0.000001 0.000002 -1.696878 2.333029 -19.215317 -0.097624 0.027215 -14.902769 0.007384 -0.033579 -14.744936 -0.000000 -0.000002 0.000004 0.821992 2.093492 -14.360223 -0.044216 0.047371 -11.566049 -0.287775 0.057983 -11.463351 -0.000001 0.000001 0.000001 3.768516 -2.495224 2.704922 7.616085 26.297383 70.265175 8.427972 27.091606 -3.486736 -23.996586 -0.287729 -13.120850 -3.890124 -11.055453 -3.136981 2.858790 -6.233754 -1.429435 3.809107 -9.167684 -1.986117 0.000007 -0.000001 0.000002 1.294420 1.070073 22.379750 -0.036152 -0.055514 20.487427 0.009238 -0.008173 18.922885 0.000001 0.000000 0.000003 -4.185842 -1.062101 25.492692 -0.066924 -0.030696 26.025895 0.043633 0.016257 24.014552 -0.000004 0.000000 -0.000009 -2.040335 -6.759680 29.145923 -0.012592 -0.005939 28.233116 0.053480 -0.118635 27.221796 0.000000 0.000002 -0.000005 -4.091205 -6.039085 32.935814 0.028475 -0.139497 26.186681 0.001554 0.128903 24.013847 -0.000000 -0.000001 -0.000001 -21.423407 -1.826560 7.992816 50.593889 6.108090 1.032349 -3.669802 0.980012 -10.006505 -4.309257 23.918175 -12.040847 0.000000 0.000000 0.000000 -6.620892 -17.752444 12.926665 32.148273 7.699808 0.280606 -19.321990 -0.642398 -18.994399 -2.726698 -12.386756 1.292805 0.000000 -0.000000 -0.000000 
374.527100 87.825264 135.715103 -0.887236 18.929063 3.046830 15.644786 2.501000 1.063601 -4.278241 1.730356 -0.197796 -4.255088 1.736545 -0.422323 15.736686 18.245889 1.894084 -3.361508 20.640533 -6.875343 0.000000 -0.000001 0.000001 2.416798 4.765770 -1.940883 0.744887 -1.341675 -74.004751 12.899270 -8.565672 -9.806605 0.120450 -5.404361 10.970679 -7.753352 1.539059 2.633084 4.521523 10.305746 1.872555 4.581906 10.802471 2.046529 0.000001 -0.000004 -0.000003 -1.714354 4.969016 -32.365090 -0.039994 0.031205 -24.603270 -0.002120 0.003479 -24.348369 0.000000 -0.000001 -0.000002 -0.476976 6.587900 -27.602662 0.048439 0.003994 -20.323989 -0.007310 -0.001351 -20.100099 -0.000000 0.000001 -0.000002 -1.883124 2.834775 -20.479591 -0.097086 0.029390 -16.071556 0.006286 -0.033346 -15.909384 0.000000 0.000000 0.000008 0.885589 2.126691 -15.865570 -0.043124 0.048649 -12.882073 -0.284643 0.061458 -12.771920 -0.000000 -0.000000 0.000001 3.780686 -2.511290 3.611850 6.757384 25.705197 69.833186 8.860830 29.120194 -4.733368 -21.453254 -0.482347 -13.146336 -3.943737 -12.007333 -3.225963 2.543477 -5.450070 -1.263865 3.365571 -8.055826 -1.778634 -0.000002 0.000003 0.000005 1.373952 0.832691 22.182851 -0.036839 -0.054884 19.741545 0.007189 -0.008164 18.330729 -0.000001 0.000000 -0.000001 -3.759115 -0.699373 24.793354 -0.067674 -0.028579 24.504198 0.044040 0.015572 22.705147 0.000003 0.000000 -0.000008 -1.698652 -6.290457 28.227002 -0.012371 -0.005633 26.592406 0.059014 -0.137882 25.675216 -0.000001 0.000001 -0.000007 -3.637290 -5.402239 31.774597 0.030841 -0.134789 24.927332 0.004598 0.129646 22.992063 -0.000003 0.000001 0.000006 -24.312902 -4.776858 6.867452 42.391805 2.469346 0.642257 -3.775323 1.931258 -11.458105 -0.438859 24.731915 -8.079226 0.000001 -0.000002 0.000001 -4.296920 -16.218622 11.805325 30.710218 9.196952 0.508132 -20.027436 1.363588 -18.540079 -2.728529 -12.388764 1.293014 0.000000 0.000000 -0.000000 
375.559998 88.546860 138.784302 -0.188394 15.438000 3.214608 14.914468 2.910352 1.215031 -3.869308 2.421752 -1.026392 -3.813207 2.307946 -1.314981 15.146578 18.937509 2.608288 -3.197212 21.525099 -7.400454 -0.000000 0.000002 -0.000000 2.285431 4.616469 -0.262651 1.421423 -0.359586 -75.516805 13.013320 -7.423359 -10.092271 0.110743 -5.280030 10.922285 -8.826013 1.678496 2.982462 4.515698 10.295075 1.870906 4.534104 10.683037 2.028292 -0.000002 0.000002 -0.000002 -1.405599 5.311481 -33.765225 -0.038409 0.032040 -25.520068 0.000071 0.007162 -25.266176 -0.000000 0.000000 -0.000002 -0.105979 6.959825 -28.796282 0.047275 0.003635 -21.359120 -0.007331 -0.001025 -21.133167 -0.000002 -0.000001 0.000002 -2.044256 3.333605 -21.710953 -0.096576 0.031270 -17.213019 0.005271 -0.033173 -17.046691 -0.000002 -0.000001 0.000001 0.949921 2.157267 -17.335746 -0.042029 0.049873 -14.167233 -0.281119 0.064857 -14.050010 -0.000000 -0.000000 -0.000001 3.795996 -2.524603 4.530727 5.314929 25.097405 69.891782 8.930630 30.414310 -5.431881 -18.636960 -0.178062 -13.036015 -4.002534 -12.938573 -3.320931 2.234084 -4.686335 -1.098473 2.929984 -6.972517 -1.568378 -0.000002 -0.000001 -0.000000 1.450160 0.600073 21.991546 -0.037558 -0.054254 19.013916 0.005445 -0.008125 17.753111 -0.000002 -0.000003 -0.000001 -3.334624 -0.356084 24.107475 -0.068356 -0.026518 23.019481 0.044410 0.014876 21.427547 0.000000 0.000003 -0.000004 -1.350426 -5.846698 27.326586 -0.011827 -0.005292 24.991582 0.063428 -0.157115 24.166058 0.000000 -0.000001 -0.000002 -3.170238 -4.803199 30.634799 0.033219 -0.130075 23.698485 0.007623 0.130005 21.994985 0.000000 -0.000001 -0.000001 -26.718173 -5.747120 5.511821 33.171121 -0.157406 0.444139 -3.029420 2.504127 -9.869843 2.763034 20.701593 -15.715669 0.000000 -0.000001 0.000000 -1.616059 -15.344196 11.076379 28.419280 11.806248 0.709712 -20.142115 2.418036 -18.805358 -2.730740 -12.390916 1.293059 -0.000000 -0.000000 -0.000000 
376.293976 89.175018 141.721466 0.141368 12.863452 3.329972 14.678614 3.023410 1.358367 -3.603796 2.777899 -1.629525 -3.519880 2.579804 -1.945307 14.614930 19.598220 3.188640 -2.989871 22.368352 -7.945193 0.000000 0.000000 0.000001 2.192406 4.587795 0.975546 2.005973 0.368023 -76.622565 13.126932 -6.570336 -10.243858 0.148877 -5.648699 10.872690 -9.851283 1.796755 3.313009 4.509882 10.284912 1.869451 4.488829 10.569337 2.010451 -0.000001 0.000003 -0.000001 -1.096960 5.626129 -35.100776 -0.036961 0.032653 -26.392882 0.002085 0.010694 -26.140054 -0.000000 0.000004 -0.000002 0.261619 7.302172 -29.936125 0.046241 0.003349 -22.344747 -0.007367 -0.000837 -22.116723 0.000001 0.000000 -0.000000 -2.178417 3.815952 -22.880398 -0.095938 0.034019 -18.299800 0.004357 -0.033016 -18.129465 -0.000001 -0.000001 0.000009 1.013143 2.184575 -18.735571 -0.040945 0.051000 -15.390894 -0.277712 0.067615 -15.266812 -0.000002 -0.000000 0.000001 3.804258 -2.535493 5.264264 3.999385 24.374985 69.818002 8.691606 31.467286 -5.505854 -16.323966 0.241931 -12.786311 -4.064785 -13.825154 -3.419194 1.939096 -3.962705 -0.937633 2.513980 -5.946401 -1.361665 0.000002 -0.000001 0.000002 1.521196 0.378408 21.810975 -0.038203 -0.053662 18.324071 0.004058 -0.008050 17.205554 -0.000000 -0.000001 0.000001 -2.924767 -0.040371 23.453920 -0.068927 -0.024573 21.611173 0.044757 0.014189 20.215850 0.000004 0.000003 -0.000004 -1.006649 -5.439435 26.469174 -0.011025 -0.004988 23.473029 0.066761 -0.175688 22.734577 -0.000003 0.000001 -0.000005 -2.705415 -4.256702 29.547398 0.033419 -0.125573 22.532809 0.010512 0.130758 21.049253 0.000000 0.000004 0.000004 -28.947616 -5.109272 4.186190 23.818873 -5.653964 -0.246353 -1.826540 2.637221 -9.015974 2.233322 18.343486 -13.780599 0.000000 0.000001 -0.000002 1.609419 -15.175895 10.589356 25.692674 14.208117 0.909322 -20.134522 3.373356 -19.007336 -2.732707 -12.392758 1.292997 -0.000000 -0.000000 0.000000 
